<svg xmlns="http://www.w3.org/2000/svg" xmlns:xlink="http://www.w3.org/1999/xlink" width="213" height="264.776" viewBox="0 0 213 264.776"><defs><style>.a{fill:url(#a);}.b{fill:#646464;font-size:38px;font-family:Raleway-Black, Raleway;font-weight:800;letter-spacing:0.162em;}</style><linearGradient id="a" x1="0.5" x2="0.5" y2="1" gradientUnits="objectBoundingBox"><stop offset="0" stop-color="#ffc09f"/><stop offset="1" stop-color="#f55"/></linearGradient></defs><g transform="translate(-1413 -81.224)"><path class="a" d="M128.073,222.92A17.786,17.786,0,1,1,151.99,201.28h35.885a13,13,0,0,0,13-13V24.317a13,13,0,0,0-13-13H23.1a13,13,0,0,0-13,13V188.279a13,13,0,0,0,13,13H74.046a43.98,43.98,0,0,0,13.615-4.526c4.2-2.355,7.258-6.75,9.2-9.851,1.711-2.737,2.805-7.9,3.253-15.35.371-6.155.2-12.36.059-15.511a15.992,15.992,0,0,1-8.375-4.854c-3.764-3.88-39.679-63.828-42.592-70.3a12.856,12.856,0,0,1-1.073-4.9,19.2,19.2,0,0,1,.454-4.613A23.8,23.8,0,0,1,50.3,66.265s0-.006,0-.01l.006-.007,0-.007a27.684,27.684,0,0,1,6.749-6.167,18.871,18.871,0,0,1,7.911-2.407,9.789,9.789,0,0,1,3.361-2.846,9.584,9.584,0,0,1,4.424-1.066,9.7,9.7,0,1,1-8.1,15.04,9.7,9.7,0,0,0-2.515.862,21.732,21.732,0,0,0-2.731,1.779,11.744,11.744,0,0,0,.067,6.989c.977,2.707,26.4,42.889,39.364,63a20.048,20.048,0,0,0,3.066,3.046,6.545,6.545,0,0,0,3.84,1.626c2.8,0,5.309-2.768,6.559-4.417,13.316-20.643,38.579-60.619,39.529-63.252a11.7,11.7,0,0,0,.055-7.029c-.428-.293-1.561-1.049-2.83-1.74a7.686,7.686,0,0,0-1.33-.548,9.7,9.7,0,1,1,.035-11.258,18.122,18.122,0,0,1,6.376,2.223,28.857,28.857,0,0,1,6.817,6.19l.043-.023.005.009a23.812,23.812,0,0,1,1.659,4.847,19.5,19.5,0,0,1,.519,4.727,12.924,12.924,0,0,1-1.076,5.064c-2.913,6.473-38.829,66.421-42.592,70.3a15.837,15.837,0,0,1-8.671,4.9c.273,5.481.653,19.254-1.678,28.723a34.93,34.93,0,0,1-5.121,11.573,26.549,26.549,0,0,1-4.669,5.243,31.245,31.245,0,0,1-6.874,5.425,54.744,54.744,0,0,1-10.81,4.325H20a19.983,19.983,0,0,1-20-20V20A19.982,19.982,0,0,1,20,0H193a19.982,19.982,0,0,1,20,20V191.383a19.982,19.982,0,0,1-20,20H152.11a17.8,17.8,0,0,1-24.037,11.536Zm1.492-10.957a7.671,7.671,0,0,0,10.859,0,7.785,7.785,0,0,0,.524-.58h0a7.693,7.693,0,0,0,1.725-4.766v-.005c0-.026,0-.053,0-.079s0-.032,0-.048,0-.017,0-.026,0-.013,0-.019a7.649,7.649,0,0,0-2.042-5.124l-.006-.007-.016-.018q-.09-.1-.184-.19a7.676,7.676,0,0,0-13.108,5.292v.011c0,.012,0,.023,0,.035s0,.018,0,.026,0,.013,0,.019,0,.032,0,.048,0,.053,0,.079v.006a7.689,7.689,0,0,0,1.724,4.764h0A7.787,7.787,0,0,0,129.565,211.964Z" transform="translate(1413 81.224)"/><text class="b" transform="translate(1424 337)"><tspan x="0" y="0">DOCTOR</tspan></text></g></svg>